<?xml version="1.0" encoding="UTF-8" standalone="no"?>
<!DOCTYPE svg PUBLIC "-//W3C//DTD SVG 1.1//EN" "http://www.w3.org/Graphics/SVG/1.1/DTD/svg11.dtd">
<svg width="100%" height="100%" viewBox="0 0 1500 1501" version="1.1" xmlns="http://www.w3.org/2000/svg" xmlns:xlink="http://www.w3.org/1999/xlink" xml:space="preserve" xmlns:serif="http://www.serif.com/" style="fill-rule:evenodd;clip-rule:evenodd;stroke-linejoin:round;stroke-miterlimit:2;">
    <g transform="matrix(1,0,0,1,0,-6686)">
        <g id="logo" transform="matrix(0.117751,0,0,0.188278,-1505.89,6686.96)">
            <rect x="12788.7" y="0" width="12738.7" height="7966.96" style="fill:rgb(40,54,24);"/>
            <g transform="matrix(85.1458,1.30428e-14,-2.08547e-14,53.2512,-43312.3,-13321.3)">
                <path d="M697.759,333.643C700.198,333.643 701.755,332.667 702.545,331.157L702.591,331.157L703.009,333.271L706.006,333.271L706.006,324.443L698.525,324.443L698.525,327.463L701.685,327.463C701.638,329.066 700.291,330.228 698.363,330.228C695.459,330.228 694.506,328.09 694.506,324.954C694.506,321.84 695.459,319.703 698.2,319.703C700.5,319.703 701.174,321.027 701.476,322.166L705.751,322.166C705.356,318.983 702.823,316.288 698.27,316.288C693.042,316.288 690.231,319.959 690.231,324.954C690.231,329.972 693.042,333.643 697.759,333.643Z" style="fill:rgb(254,250,224);fill-rule:nonzero;"/>
                <rect x="708.376" y="316.66" width="4.182" height="16.611" style="fill:rgb(254,250,224);fill-rule:nonzero;"/>
                <path d="M714.3,333.271L718.784,333.271L719.853,329.809L725.545,329.809L726.614,333.271L731.19,333.271L724.825,316.66L720.62,316.66L714.3,333.271ZM720.805,326.626L722.687,320.493L722.734,320.493L724.616,326.626L720.805,326.626Z" style="fill:rgb(254,250,224);fill-rule:nonzero;"/>
                <path d="M738.811,333.643C743.388,333.643 745.897,330.855 746.269,327.045L741.994,327.045C741.715,328.903 740.971,330.228 738.741,330.228C735.976,330.228 735.14,328.09 735.14,324.954C735.14,321.84 735.976,319.703 738.741,319.703C740.948,319.703 741.692,321.027 741.994,322.839L746.269,322.839C745.874,318.983 743.457,316.288 738.927,316.288C733.676,316.288 730.865,319.935 730.865,325.023C730.865,329.972 733.537,333.643 738.811,333.643Z" style="fill:rgb(254,250,224);fill-rule:nonzero;"/>
                <path d="M748.174,333.271L759.744,333.271L759.744,329.856L752.356,329.856L752.356,316.66L748.174,316.66L748.174,333.271Z" style="fill:rgb(254,250,224);fill-rule:nonzero;"/>
                <path d="M768.92,333.643C774.148,333.643 777.145,329.972 777.145,324.954C777.145,319.959 774.148,316.288 768.92,316.288C763.647,316.288 760.696,319.959 760.696,324.954C760.696,329.972 763.647,333.643 768.92,333.643ZM764.971,324.954C764.971,322.073 765.877,319.703 768.92,319.703C771.941,319.703 772.87,322.073 772.87,324.954C772.87,327.858 771.941,330.228 768.92,330.228C765.877,330.228 764.971,327.858 764.971,324.954Z" style="fill:rgb(254,250,224);fill-rule:nonzero;"/>
            </g>
            <g transform="matrix(85.1458,1.30428e-14,-2.08547e-14,53.2512,-39104.3,-13815.5)">
                <g transform="matrix(10.772,0,0,10.772,737.474,333.271)">
                </g>
                <text x="729.902px" y="333.271px" style="font-family:'PPNeueMontreal-Bold', 'PP Neue Montreal';font-weight:700;font-size:10.772px;fill:rgb(254,250,224);">™</text>
            </g>
        </g>
    </g>
</svg>
